<svg width="14" height="14" viewBox="0 0 14 14" fill="none" xmlns="http://www.w3.org/2000/svg">
<path d="M11.996 9.12268L10.1579 8.91281C9.71644 8.86216 9.28224 9.01413 8.97105 9.32531L7.63948 10.6569C5.59147 9.61479 3.91254 7.94308 2.87044 5.88782L4.20925 4.54901C4.52043 4.23782 4.6724 3.80361 4.62174 3.36217L4.41188 1.53849C4.32504 0.807567 3.70991 0.257568 2.97176 0.257568H1.71979C0.902035 0.257568 0.221776 0.93783 0.272434 1.75559C0.655984 7.93584 5.59871 12.8714 11.7717 13.2549C12.5894 13.3056 13.2697 12.6253 13.2697 11.8075V10.5556C13.2769 9.82465 12.7269 9.20952 11.996 9.12268Z" fill="#212121"/>
</svg>
